<svg width="48" height="38" viewBox="0 0 48 38" fill="none" xmlns="http://www.w3.org/2000/svg">
<path d="M18.067 33.7206C18.068 34.1871 18.2063 34.643 18.4648 35.0313L19.7339 36.938C20.1221 37.5251 21.0082 37.9978 21.7111 37.9978H26.2904C26.9932 37.9978 27.8794 37.5251 28.2676 36.938L29.536 35.0313C29.7771 34.6348 29.9151 34.1842 29.9375 33.7206V30.8751H18.0625L18.067 33.7206ZM23.9592 6.75331e-05C16.3881 0.0230753 10.9375 6.16022 10.9375 13.0626C10.9331 16.225 12.0826 19.2804 14.1705 21.6556C15.3966 23.0546 17.3144 25.9766 18.0454 28.4422C18.0454 28.463 18.0506 28.4815 18.0536 28.5001H29.9464C29.9464 28.4815 29.9516 28.463 29.9546 28.4422C30.6856 25.9766 32.6034 23.0546 33.8295 21.6556C35.9174 19.2804 37.0669 16.225 37.0625 13.0626C37.0625 5.83589 31.1925 -0.0229403 23.9592 6.75331e-05ZM24 7.12507C22.4258 7.12684 20.9166 7.75296 19.8035 8.86607C18.6904 9.97919 18.0643 11.4884 18.0625 13.0626C18.0625 13.3775 17.9374 13.6796 17.7147 13.9023C17.492 14.125 17.1899 14.2501 16.875 14.2501C16.5601 14.2501 16.258 14.125 16.0353 13.9023C15.8126 13.6796 15.6875 13.3775 15.6875 13.0626C15.6899 10.8587 16.5664 8.74573 18.1248 7.18735C19.6832 5.62896 21.7961 4.75242 24 4.75007C24.3149 4.75007 24.617 4.87518 24.8397 5.09788C25.0624 5.32058 25.1875 5.62262 25.1875 5.93757C25.1875 6.25251 25.0624 6.55456 24.8397 6.77726C24.617 6.99996 24.3149 7.12507 24 7.12507ZM8.5625 14.2501C8.5625 13.7777 8.37483 13.3246 8.04078 12.9905C7.70674 12.6565 7.25367 12.4688 6.78125 12.4688H2.03125C1.55883 12.4688 1.10577 12.6565 0.771716 12.9905C0.437667 13.3246 0.25 13.7777 0.25 14.2501C0.25 14.7225 0.437667 15.1756 0.771716 15.5096C1.10577 15.8437 1.55883 16.0313 2.03125 16.0313H6.78125C7.25367 16.0313 7.70674 15.8437 8.04078 15.5096C8.37483 15.1756 8.5625 14.7225 8.5625 14.2501ZM45.9688 12.4688H41.2188C40.7463 12.4688 40.2933 12.6565 39.9592 12.9905C39.6252 13.3246 39.4375 13.7777 39.4375 14.2501C39.4375 14.7225 39.6252 15.1756 39.9592 15.5096C40.2933 15.8437 40.7463 16.0313 41.2188 16.0313H45.9688C46.4412 16.0313 46.8942 15.8437 47.2283 15.5096C47.5623 15.1756 47.75 14.7225 47.75 14.2501C47.75 13.7777 47.5623 13.3246 47.2283 12.9905C46.8942 12.6565 46.4412 12.4688 45.9688 12.4688ZM9.97859 4.09843L5.86539 1.72343C5.66265 1.60136 5.43762 1.52092 5.20344 1.48681C4.96926 1.45269 4.73063 1.46557 4.50149 1.52472C4.27234 1.58386 4.05728 1.68806 3.86887 1.83125C3.68045 1.97444 3.52246 2.15374 3.40411 2.35867C3.28577 2.56361 3.20944 2.79007 3.1796 3.02483C3.14976 3.25959 3.167 3.49795 3.23031 3.72597C3.29362 3.954 3.40173 4.16712 3.54833 4.3529C3.69493 4.53867 3.87708 4.69337 4.08414 4.80796L8.19734 7.18296C8.40009 7.30502 8.62512 7.38546 8.8593 7.41958C9.09348 7.4537 9.33211 7.44081 9.56125 7.38167C9.79039 7.32253 10.0055 7.21832 10.1939 7.07513C10.3823 6.93194 10.5403 6.75265 10.6586 6.54771C10.777 6.34278 10.8533 6.11631 10.8831 5.88155C10.913 5.64679 10.8957 5.40844 10.8324 5.18041C10.7691 4.95239 10.661 4.73926 10.5144 4.55349C10.3678 4.36771 10.1857 4.21302 9.97859 4.09843ZM43.9159 23.6922L39.8027 21.3172C39.5999 21.1951 39.3749 21.1147 39.1407 21.0806C38.9065 21.0464 38.6679 21.0593 38.4388 21.1185C38.2096 21.1776 37.9945 21.2818 37.8061 21.425C37.6177 21.5682 37.4597 21.7475 37.3414 21.9524C37.223 22.1574 37.1467 22.3838 37.1169 22.6186C37.087 22.8533 37.1043 23.0917 37.1676 23.3197C37.2309 23.5478 37.339 23.7609 37.4856 23.9466C37.6322 24.1324 37.8144 24.2871 38.0214 24.4017L42.1346 26.7767C42.543 27.0027 43.0239 27.0594 43.4736 26.9345C43.9234 26.8096 44.3062 26.5132 44.5396 26.109C44.7731 25.7047 44.8385 25.225 44.7218 24.7731C44.6052 24.3211 44.3158 23.9329 43.9159 23.6922ZM8.19734 21.3172L4.08414 23.6922C3.87708 23.8068 3.69493 23.9615 3.54833 24.1472C3.40173 24.333 3.29362 24.5461 3.23031 24.7742C3.167 25.0022 3.14976 25.2405 3.1796 25.4753C3.20944 25.7101 3.28577 25.9365 3.40411 26.1415C3.52246 26.3464 3.68045 26.5257 3.86887 26.6689C4.05728 26.8121 4.27234 26.9163 4.50149 26.9754C4.73063 27.0346 4.96926 27.0474 5.20344 27.0133C5.43762 26.9792 5.66265 26.8988 5.86539 26.7767L9.97859 24.4017C10.3785 24.1609 10.6679 23.7728 10.7846 23.3208C10.9012 22.8689 10.8358 22.3891 10.6024 21.9849C10.3689 21.5807 9.98614 21.2842 9.53636 21.1594C9.08659 21.0345 8.60576 21.0912 8.19734 21.3172ZM38.9135 7.42194C39.2263 7.42254 39.5337 7.34007 39.8041 7.18296L43.9173 4.80796C44.3172 4.56719 44.6067 4.17906 44.7233 3.72708C44.84 3.27511 44.7745 2.7954 44.5411 2.39117C44.3077 1.98694 43.9249 1.69049 43.4751 1.56561C43.0253 1.44074 42.5445 1.4974 42.1361 1.72343L38.0229 4.09843C37.6835 4.29456 37.4182 4.59718 37.2683 4.95937C37.1184 5.32157 37.0921 5.72311 37.1936 6.10176C37.295 6.4804 37.5186 6.815 37.8295 7.05369C38.1405 7.29237 38.5215 7.42181 38.9135 7.42194Z" fill="#FAFBFC"/>
</svg>
