<svg width="32" height="32" viewBox="0 0 32 32" fill="none" xmlns="http://www.w3.org/2000/svg">
<path d="M16.1284 0.745605C7.63071 0.745605 0.745697 7.63062 0.745697 16.1283C0.745697 24.6261 7.63071 31.5111 16.1284 31.5111C24.6262 31.5111 31.5112 24.6261 31.5112 16.1283C31.5112 7.63062 24.6262 0.745605 16.1284 0.745605ZM21.0906 11.1662C22.1885 11.1662 23.0755 12.0532 23.0755 13.151C23.0755 14.2489 22.1885 15.1359 21.0906 15.1359C19.9927 15.1359 19.1057 14.2489 19.1057 13.151C19.1057 12.0532 19.9927 11.1662 21.0906 11.1662ZM11.1663 11.1662C12.2641 11.1662 13.1511 12.0532 13.1511 13.151C13.1511 14.2489 12.2641 15.1359 11.1663 15.1359C10.0684 15.1359 9.18139 14.2489 9.18139 13.151C9.18139 12.0532 10.0684 11.1662 11.1663 11.1662ZM23.2492 21.7232C21.4814 23.8445 18.8886 25.0603 16.1284 25.0603C13.3682 25.0603 10.7755 23.8445 9.00772 21.7232C8.16415 20.7122 9.69002 19.4468 10.5336 20.4516C11.923 22.1202 13.9575 23.0692 16.1284 23.0692C18.2994 23.0692 20.3339 22.114 21.7233 20.4516C22.5545 19.4468 24.0865 20.7122 23.2492 21.7232Z" fill="#FAFBFC"/>
</svg>
