<svg width="45" height="34" viewBox="0 0 45 34" fill="none" xmlns="http://www.w3.org/2000/svg">
<path d="M0.03125 9.54516V8.23541C0.03125 7.15037 0.965797 6.2708 2.11865 6.2708H33.4297V2.34157C33.4297 0.592494 35.6823 -0.28135 36.9931 0.952345L43.9512 7.50106C44.7663 8.26832 44.7663 9.51225 43.9512 10.2794L36.9931 16.8281C35.6872 18.057 33.4297 17.1954 33.4297 15.439V11.5098H2.11865C0.965797 11.5098 0.03125 10.6302 0.03125 9.54516ZM42.4751 21.9877H11.1641V18.0585C11.1641 16.3137 8.91471 15.4325 7.60061 16.6693L0.642598 23.218C-0.172533 23.9852 -0.172533 25.2292 0.642598 25.9963L7.60061 32.5451C8.90767 33.7752 11.1641 32.9107 11.1641 31.1559V27.2267H42.4751C43.628 27.2267 44.5625 26.3471 44.5625 25.2621V23.9523C44.5625 22.8673 43.628 21.9877 42.4751 21.9877Z" fill="#FAFBFC"/>
</svg>
