<svg width="25" height="17" viewBox="0 0 25 17" fill="none" xmlns="http://www.w3.org/2000/svg">
<path d="M4.37891 7.46875C5.6587 7.46875 6.69922 6.42824 6.69922 5.14844C6.69922 3.86864 5.6587 2.82812 4.37891 2.82812C3.09911 2.82812 2.05859 3.86864 2.05859 5.14844C2.05859 6.42824 3.09911 7.46875 4.37891 7.46875ZM20.6211 7.46875C21.9009 7.46875 22.9414 6.42824 22.9414 5.14844C22.9414 3.86864 21.9009 2.82812 20.6211 2.82812C19.3413 2.82812 18.3008 3.86864 18.3008 5.14844C18.3008 6.42824 19.3413 7.46875 20.6211 7.46875ZM21.7812 8.62891H19.4609C18.8229 8.62891 18.2464 8.88632 17.8258 9.30325C19.2869 10.1045 20.3238 11.5511 20.5486 13.2695H22.9414C23.5831 13.2695 24.1016 12.7511 24.1016 12.1094V10.9492C24.1016 9.66942 23.061 8.62891 21.7812 8.62891ZM12.5 8.62891C14.7442 8.62891 16.5605 6.81254 16.5605 4.56836C16.5605 2.32418 14.7442 0.507812 12.5 0.507812C10.2558 0.507812 8.43945 2.32418 8.43945 4.56836C8.43945 6.81254 10.2558 8.62891 12.5 8.62891ZM15.2844 9.78906H14.9835C14.2294 10.1516 13.3919 10.3691 12.5 10.3691C11.6081 10.3691 10.7743 10.1516 10.0165 9.78906H9.71562C7.40981 9.78906 5.53906 11.6598 5.53906 13.9656V15.0098C5.53906 15.9705 6.31854 16.75 7.2793 16.75H17.7207C18.6815 16.75 19.4609 15.9705 19.4609 15.0098V13.9656C19.4609 11.6598 17.5902 9.78906 15.2844 9.78906ZM7.17416 9.30325C6.7536 8.88632 6.17715 8.62891 5.53906 8.62891H3.21875C1.93895 8.62891 0.898438 9.66942 0.898438 10.9492V12.1094C0.898438 12.7511 1.41688 13.2695 2.05859 13.2695H4.44779C4.6762 11.5511 5.71309 10.1045 7.17416 9.30325Z" fill="#FAFBFC"/>
</svg>
