<svg width="45" height="40" viewBox="0 0 45 40" fill="none" xmlns="http://www.w3.org/2000/svg">
<path d="M41.7793 8.75586V5.97266H43.5188C44.0952 5.97266 44.5625 5.50534 44.5625 4.92896V1.44995C44.5625 0.873567 44.0952 0.40625 43.5188 0.40625H40.0398C39.4634 0.40625 38.9961 0.873567 38.9961 1.44995V3.18945H5.59766V1.44995C5.59766 0.873567 5.13034 0.40625 4.55396 0.40625H1.07495C0.498567 0.40625 0.03125 0.873567 0.03125 1.44995V4.92896C0.03125 5.50534 0.498567 5.97266 1.07495 5.97266H2.81445V33.8047H1.07495C0.498567 33.8047 0.03125 34.272 0.03125 34.8484V38.3274C0.03125 38.9038 0.498567 39.3711 1.07495 39.3711H4.55396C5.13034 39.3711 5.59766 38.9038 5.59766 38.3274V36.5879H38.9961V38.3274C38.9961 38.9038 39.4634 39.3711 40.0398 39.3711H43.5188C44.0952 39.3711 44.5625 38.9038 44.5625 38.3274V34.8484C44.5625 34.272 44.0952 33.8047 43.5188 33.8047H41.7793V8.75586ZM8.38086 21.6282V9.79956C8.38086 9.22318 8.84818 8.75586 9.42456 8.75586H24.0364C24.6128 8.75586 25.0801 9.22318 25.0801 9.79956V21.6282C25.0801 22.2046 24.6128 22.6719 24.0364 22.6719H9.42456C8.84818 22.6719 8.38086 22.2046 8.38086 21.6282ZM36.2129 29.9778C36.2129 30.5542 35.7456 31.0215 35.1692 31.0215H20.5574C19.981 31.0215 19.5137 30.5542 19.5137 29.9778V25.4551H25.7759C26.9287 25.4551 27.8633 24.5205 27.8633 23.3677V17.1055H35.1692C35.7456 17.1055 36.2129 17.5728 36.2129 18.1492V29.9778Z" fill="#FAFBFC"/>
</svg>
