<svg width="19" height="21" viewBox="0 0 19 21" fill="none" xmlns="http://www.w3.org/2000/svg">
<path d="M18.5234 3.13393V4.97544C18.5234 6.59829 14.4817 7.92188 9.5 7.92188C4.5183 7.92188 0.476562 6.59829 0.476562 4.97544V3.13393C0.476562 1.51109 4.5183 0.1875 9.5 0.1875C14.4817 0.1875 18.5234 1.51109 18.5234 3.13393ZM18.5234 7.27734V11.4208C18.5234 13.0436 14.4817 14.3672 9.5 14.3672C4.5183 14.3672 0.476562 13.0436 0.476562 11.4208V7.27734C2.41519 8.61245 5.96346 9.23398 9.5 9.23398C13.0365 9.23398 16.5848 8.61245 18.5234 7.27734ZM18.5234 13.7227V17.8661C18.5234 19.4889 14.4817 20.8125 9.5 20.8125C4.5183 20.8125 0.476562 19.4889 0.476562 17.8661V13.7227C2.41519 15.0578 5.96346 15.6793 9.5 15.6793C13.0365 15.6793 16.5848 15.0578 18.5234 13.7227Z" fill="#FAFBFC"/>
</svg>
