<svg width="36" height="32" viewBox="0 0 36 32" fill="none" xmlns="http://www.w3.org/2000/svg">
<path d="M18 0.414795C8.16186 0.414795 0.188385 6.89237 0.188385 14.8867C0.188385 18.3377 1.67732 21.4965 4.15425 23.9804C3.28454 27.487 0.376242 30.611 0.341453 30.6458C0.188385 30.8058 0.146639 31.0424 0.237089 31.2511C0.327538 31.4599 0.522352 31.5851 0.744997 31.5851C5.35792 31.5851 8.81588 29.3726 10.5275 28.0089C12.8026 28.8646 15.3282 29.3586 18 29.3586C27.8381 29.3586 35.8116 22.8811 35.8116 14.8867C35.8116 6.89237 27.8381 0.414795 18 0.414795ZM20.2264 18.783C20.2264 19.0891 19.976 19.3396 19.6698 19.3396H9.65079C9.34466 19.3396 9.09418 19.0891 9.09418 18.783V17.6698C9.09418 17.3636 9.34466 17.1132 9.65079 17.1132H19.6698C19.976 17.1132 20.2264 17.3636 20.2264 17.6698V18.783ZM26.9058 12.1037C26.9058 12.4098 26.6553 12.6603 26.3492 12.6603H9.65079C9.34466 12.6603 9.09418 12.4098 9.09418 12.1037V10.9904C9.09418 10.6843 9.34466 10.4338 9.65079 10.4338H26.3492C26.6553 10.4338 26.9058 10.6843 26.9058 10.9904V12.1037Z" fill="#FAFBFC"/>
</svg>
