<svg width="10" height="11" viewBox="0 0 10 11" fill="none" xmlns="http://www.w3.org/2000/svg">
<path d="M8.28915 10.106H1.71039C0.801293 10.106 0.0585938 9.36329 0.0585938 8.45419V1.87543C0.0585938 0.966331 0.801293 0.223633 1.71039 0.223633H8.28915C9.19825 0.223633 9.94095 0.966331 9.94095 1.87543V8.45419C9.94095 9.36735 9.20231 10.106 8.28915 10.106Z" fill="white"/>
<path d="M5.00138 7.70394C4.32362 7.70394 3.68644 7.44014 3.20754 6.96124C2.72864 6.48234 2.46484 5.84516 2.46484 5.1674C2.46484 4.48963 2.72864 3.85246 3.20754 3.37356C3.68644 2.89466 4.32362 2.63086 5.00138 2.63086C5.67914 2.63086 6.31632 2.89466 6.79522 3.37356C7.27412 3.85246 7.53792 4.48963 7.53792 5.1674C7.53792 5.84516 7.27412 6.48234 6.79522 6.96124C6.31226 7.44014 5.67914 7.70394 5.00138 7.70394ZM5.00138 3.17063C3.90154 3.17063 3.00462 4.0635 3.00462 5.1674C3.00462 6.26724 3.89748 7.16416 5.00138 7.16416C6.10122 7.16416 6.99814 6.2713 6.99814 5.1674C6.99409 4.06755 6.10122 3.17063 5.00138 3.17063Z" fill="#FE9563"/>
<path d="M8.0339 2.54632C8.30288 2.54632 8.52093 2.32827 8.52093 2.05929C8.52093 1.79032 8.30288 1.57227 8.0339 1.57227C7.76492 1.57227 7.54688 1.79032 7.54688 2.05929C7.54688 2.32827 7.76492 2.54632 8.0339 2.54632Z" fill="#FE9563"/>
</svg>
