<svg width="12" height="12" viewBox="0 0 12 12" fill="none" xmlns="http://www.w3.org/2000/svg">
<path d="M2.83882 4.19141H0.429688V11.874H2.83882V4.19141Z" fill="white"/>
<path d="M9.35157 4.02398C9.26275 4.01288 9.16839 4.00732 9.07402 4.00177C7.72513 3.94626 6.96464 4.74561 6.6982 5.08977C6.62603 5.18414 6.59273 5.23965 6.59273 5.23965V4.21271H4.28906V11.8953H6.59273H6.6982C6.6982 11.1126 6.6982 10.3355 6.6982 9.55277C6.6982 9.13089 6.6982 8.70902 6.6982 8.28714C6.6982 7.76535 6.65934 7.21025 6.92024 6.73286C7.14228 6.33319 7.54194 6.13336 7.99158 6.13336C9.32381 6.13336 9.35157 7.33792 9.35157 7.44894C9.35157 7.45449 9.35157 7.46004 9.35157 7.46004V11.9286H11.7607V6.91605C11.7607 5.20079 10.8892 4.19051 9.35157 4.02398Z" fill="white"/>
<path d="M1.63322 3.19712C2.40579 3.19712 3.03208 2.57083 3.03208 1.79827C3.03208 1.0257 2.40579 0.399414 1.63322 0.399414C0.860659 0.399414 0.234375 1.0257 0.234375 1.79827C0.234375 2.57083 0.860659 3.19712 1.63322 3.19712Z" fill="white"/>
</svg>
