<svg width="10" height="12" viewBox="0 0 10 12" fill="none" xmlns="http://www.w3.org/2000/svg">
<path fill-rule="evenodd" clip-rule="evenodd" d="M4.15518 8.28C4.52016 8.29177 4.84982 8.77449 5.81525 8.77449C7.62838 8.78626 8.87638 7.39698 9.26491 5.57208C10.6189 -0.75032 1.40017 -1.25658 0.458285 3.94733C0.234587 5.17178 0.599568 6.58461 1.55323 7.04377C2.28319 7.39698 2.33028 6.38445 2.10658 5.94883C1.1176 4.01797 2.30673 2.27548 3.86084 1.78099C5.32076 1.31005 6.35684 1.69858 7.14567 2.51096C8.15819 3.5588 7.69902 6.408 6.49812 7.31457C6.07427 7.63245 5.29722 7.70309 4.89692 7.32634C4.07277 6.56106 5.34431 4.93631 5.15594 3.74718C4.96756 2.56982 3.10734 2.74643 3.01315 4.47714C2.96605 5.36016 3.22507 5.61917 3.02492 6.50219C2.70703 7.91502 1.7416 10.7995 2.42447 11.9298C3.42522 11.4589 3.91971 8.6332 4.15518 8.28Z" fill="white"/>
</svg>
