<svg width="12" height="11" viewBox="0 0 12 11" fill="none" xmlns="http://www.w3.org/2000/svg">
<path d="M0.398438 8.68956C1.61741 8.75816 2.68336 8.4732 3.72292 7.7186C2.67281 7.53918 1.94459 7.05898 1.54882 6.06691C1.85488 6.02469 2.12401 6.10385 2.44062 5.9772C1.40634 5.52338 0.736164 4.84266 0.709779 3.66589C1.03695 3.69228 1.28497 3.90863 1.67546 3.87697C0.725613 2.94823 0.435376 1.93505 1.03167 0.705521C2.02374 1.84534 3.18467 2.62106 4.60418 2.98517C4.68333 3.00627 4.7572 3.02738 4.83636 3.04321C5.20047 3.12764 5.63318 3.30706 5.85481 3.28068C6.23475 3.23318 5.85482 2.7952 5.9498 2.22528C6.25059 0.452227 8.20306 -0.355148 9.64895 0.684413C10.0711 0.990477 10.4035 0.9852 10.8204 0.800506C11.0368 0.705521 11.2584 0.610536 11.517 0.49972C11.4589 1.00631 11.0684 1.28599 10.7571 1.66065C11.1107 1.7398 11.3956 1.63954 11.7228 1.534C11.612 1.89811 11.3376 2.10391 11.0896 2.30444C10.831 2.51024 10.7307 2.7266 10.7202 3.06432C10.5619 8.17769 4.75193 12.1301 0.778382 8.98507C0.393164 8.679 0.767825 8.98507 0.398438 8.68956Z" fill="white"/>
</svg>
