<svg width="48" height="38" fill="none" xmlns="http://www.w3.org/2000/svg"><path d="M18.067 33.72c.001.467.14.923.398 1.311l1.269 1.907c.388.587 1.274 1.06 1.977 1.06h4.58c.702 0 1.588-.473 1.977-1.06l1.268-1.907c.241-.396.38-.847.401-1.31v-2.846H18.063l.005 2.846zM23.959 0c-7.57.023-13.021 6.16-13.021 13.063a12.988 12.988 0 003.232 8.593c1.227 1.399 3.144 4.32 3.875 6.786 0 .021.006.04.009.058h11.892c0-.018.006-.037.009-.058.73-2.465 2.648-5.387 3.875-6.786a12.988 12.988 0 003.233-8.593c0-7.227-5.87-13.086-13.104-13.063zM24 7.125a5.944 5.944 0 00-5.938 5.938 1.188 1.188 0 01-2.375 0A8.322 8.322 0 0124 4.75a1.188 1.188 0 010 2.375zM8.562 14.25a1.782 1.782 0 00-1.78-1.781h-4.75a1.781 1.781 0 000 3.562h4.75a1.781 1.781 0 001.78-1.78zm37.408-1.78h-4.75a1.782 1.782 0 000 3.562h4.75a1.781 1.781 0 100-3.562zM9.98 4.1L5.865 1.722a1.78 1.78 0 10-1.78 3.085l4.112 2.375A1.781 1.781 0 109.98 4.098zm33.937 19.593l-4.113-2.375a1.78 1.78 0 10-1.782 3.085l4.114 2.375a1.781 1.781 0 001.78-3.085zm-35.72-2.376l-4.113 2.375a1.782 1.782 0 101.781 3.085l4.114-2.375a1.782 1.782 0 00-1.782-3.085zM38.913 7.422c.313 0 .62-.082.891-.239l4.113-2.375a1.781 1.781 0 00-1.78-3.085l-4.114 2.375a1.781 1.781 0 00.89 3.324z" fill="#FAFBFC"/></svg>