<svg width="36" height="32" fill="none" xmlns="http://www.w3.org/2000/svg"><path d="M18 .415C8.162.415.188 6.892.188 14.887c0 3.45 1.49 6.61 3.966 9.093-.87 3.507-3.778 6.631-3.813 6.666a.553.553 0 00-.104.605c.09.209.285.334.508.334 4.613 0 8.07-2.212 9.783-3.576A21.22 21.22 0 0018 29.359c9.838 0 17.812-6.478 17.812-14.472C35.812 6.892 27.838.415 18 .415zm2.226 18.368c0 .306-.25.557-.556.557H9.65a.558.558 0 01-.556-.557V17.67c0-.306.25-.557.557-.557H19.67c.306 0 .556.25.556.557v1.113zm6.68-6.68c0 .307-.25.557-.557.557H9.651a.558.558 0 01-.557-.556V10.99c0-.306.25-.556.557-.556h16.698c.306 0 .557.25.557.556v1.114z" fill="#FAFBFC"/></svg>