<svg width="45" height="40" fill="none" xmlns="http://www.w3.org/2000/svg"><path d="M41.78 8.756V5.973h1.739c.576 0 1.044-.468 1.044-1.044V1.45c0-.576-.468-1.044-1.044-1.044h-3.48c-.576 0-1.043.468-1.043 1.044v1.74H5.598V1.45C5.598.874 5.13.406 4.554.406H1.075C.499.406.031.874.031 1.45v3.479c0 .576.468 1.044 1.044 1.044h1.74v27.832h-1.74c-.576 0-1.044.467-1.044 1.043v3.48c0 .576.468 1.043 1.044 1.043h3.479c.576 0 1.044-.467 1.044-1.044v-1.74h33.398v1.74c0 .577.467 1.044 1.044 1.044h3.479c.576 0 1.044-.467 1.044-1.044v-3.479c0-.576-.468-1.043-1.044-1.043h-1.74V8.755zM8.38 21.628V9.8c0-.577.468-1.044 1.045-1.044h14.611c.577 0 1.044.467 1.044 1.044v11.828c0 .577-.467 1.044-1.044 1.044H9.425a1.044 1.044 0 01-1.044-1.044zm27.833 8.35c0 .576-.467 1.043-1.044 1.043H20.557a1.044 1.044 0 01-1.043-1.043v-4.523h6.262a2.087 2.087 0 002.087-2.087v-6.262h7.306c.577 0 1.044.467 1.044 1.043v11.829z" fill="#FAFBFC"/></svg>