<svg width="25" height="17" fill="none" xmlns="http://www.w3.org/2000/svg"><path d="M4.379 7.469c1.28 0 2.32-1.04 2.32-2.32 0-1.28-1.04-2.32-2.32-2.32-1.28 0-2.32 1.04-2.32 2.32 0 1.28 1.04 2.32 2.32 2.32zm16.242 0c1.28 0 2.32-1.04 2.32-2.32 0-1.28-1.04-2.32-2.32-2.32-1.28 0-2.32 1.04-2.32 2.32 0 1.28 1.04 2.32 2.32 2.32zm1.16 1.16h-2.32c-.638 0-1.215.257-1.635.674a5.303 5.303 0 012.723 3.966h2.392c.642 0 1.16-.518 1.16-1.16v-1.16c0-1.28-1.04-2.32-2.32-2.32zm-9.281 0a4.058 4.058 0 004.06-4.06A4.058 4.058 0 0012.5.507a4.058 4.058 0 00-4.06 4.06 4.058 4.058 0 004.06 4.06zm2.784 1.16h-.3a5.711 5.711 0 01-2.484.58 5.724 5.724 0 01-2.483-.58h-.301a4.178 4.178 0 00-4.177 4.177v1.044c0 .96.78 1.74 1.74 1.74h10.442c.96 0 1.74-.78 1.74-1.74v-1.044a4.178 4.178 0 00-4.177-4.177zm-8.11-.486A2.314 2.314 0 005.54 8.63H3.22C1.94 8.63.9 9.67.9 10.95v1.16c0 .642.518 1.16 1.16 1.16h2.389a5.317 5.317 0 012.726-3.966z" fill="#FAFBFC"/></svg>