<svg width="19" height="21" fill="none" xmlns="http://www.w3.org/2000/svg"><path d="M18.523 3.134v1.841c0 1.623-4.041 2.947-9.023 2.947-4.982 0-9.023-1.324-9.023-2.947V3.134C.477 1.51 4.518.188 9.5.188c4.982 0 9.023 1.323 9.023 2.946zm0 4.143v4.144c0 1.623-4.041 2.946-9.023 2.946-4.982 0-9.023-1.323-9.023-2.946V7.277C2.415 8.612 5.963 9.234 9.5 9.234s7.085-.622 9.023-1.957zm0 6.446v4.143c0 1.623-4.041 2.947-9.023 2.947-4.982 0-9.023-1.324-9.023-2.947v-4.143c1.938 1.335 5.486 1.956 9.023 1.956s7.085-.621 9.023-1.956z" fill="#FAFBFC"/></svg>