<svg width="32" height="32" fill="none" xmlns="http://www.w3.org/2000/svg"><path d="M16.128.746C7.631.746.746 7.63.746 16.128s6.885 15.383 15.382 15.383c8.498 0 15.383-6.885 15.383-15.383 0-8.497-6.885-15.382-15.383-15.382zm4.963 10.42c1.098 0 1.985.887 1.985 1.985a1.983 1.983 0 01-1.985 1.985 1.983 1.983 0 01-1.985-1.985c0-1.098.887-1.985 1.985-1.985zm-9.925 0c1.098 0 1.985.887 1.985 1.985a1.983 1.983 0 01-1.985 1.985 1.983 1.983 0 01-1.985-1.985c0-1.098.887-1.985 1.985-1.985zM23.25 21.723a9.241 9.241 0 01-7.12 3.337 9.24 9.24 0 01-7.121-3.337c-.844-1.01.682-2.276 1.526-1.271a7.248 7.248 0 005.594 2.617 7.268 7.268 0 005.595-2.617c.832-1.005 2.364.26 1.526 1.271z" fill="#FAFBFC"/></svg>