<svg width="45" height="34" fill="none" xmlns="http://www.w3.org/2000/svg"><path d="M.031 9.545v-1.31c0-1.085.935-1.964 2.088-1.964h31.31V2.34c0-1.749 2.253-2.622 3.564-1.389l6.958 6.55a1.884 1.884 0 010 2.777l-6.958 6.55c-1.306 1.228-3.563.366-3.563-1.39v-3.93H2.119C.966 11.51.03 10.63.03 9.546zm42.444 12.443h-31.31v-3.93c0-1.744-2.25-2.626-3.564-1.389L.643 23.218a1.884 1.884 0 000 2.778l6.958 6.55c1.307 1.23 3.563.365 3.563-1.39v-3.93h31.311c1.153 0 2.087-.879 2.087-1.964v-1.31c0-1.085-.934-1.964-2.087-1.964z" fill="#FAFBFC"/></svg>