<svg width="10" height="11" fill="none" xmlns="http://www.w3.org/2000/svg"><path d="M8.29 10.106H1.71c-.909 0-1.65-.743-1.65-1.652V1.875A1.652 1.652 0 011.71.224h6.58c.908 0 1.651.742 1.651 1.651v6.58a1.65 1.65 0 01-1.652 1.651z" fill="#fff"/><path d="M5.001 7.704a2.52 2.52 0 01-1.793-.743 2.52 2.52 0 01-.743-1.794c0-.677.264-1.315.743-1.793A2.52 2.52 0 015 2.63a2.52 2.52 0 011.794.743 2.52 2.52 0 01.743 1.793 2.52 2.52 0 01-.743 1.794A2.527 2.527 0 015 7.703zm0-4.533a1.998 1.998 0 000 3.993c1.1 0 1.997-.893 1.997-1.997a2.003 2.003 0 00-1.997-1.996zm3.033-.625a.487.487 0 100-.974.487.487 0 000 .974z" fill="#FE9563"/></svg>