<svg width="28" height="28" fill="none" xmlns="http://www.w3.org/2000/svg"><path fill="#F5F5F5" d="M0 0h28v28H0z"/><g clip-path="url(#clip0_2_6241)"><path fill="#FFFCF5" d="M-637-11559H803V47H-637z"/><path fill="url(#paint0_linear_2_6241)" d="M-637-19H803v66H-637z"/><circle cx="14" cy="14" r="14" fill="#FE9563"/><path d="M17.29 19.106h-6.58a1.655 1.655 0 01-1.651-1.652v-6.579c0-.909.742-1.651 1.651-1.651h6.58c.908 0 1.65.742 1.65 1.651v6.58a1.65 1.65 0 01-1.65 1.651z" fill="#fff"/><path d="M14.001 16.704a2.52 2.52 0 01-1.793-.743 2.52 2.52 0 01-.743-1.794c0-.677.264-1.315.742-1.793a2.52 2.52 0 011.794-.743 2.52 2.52 0 011.794.743 2.52 2.52 0 01.743 1.793 2.52 2.52 0 01-.743 1.794 2.527 2.527 0 01-1.794.743zm0-4.533a1.998 1.998 0 000 3.993c1.1 0 1.997-.893 1.997-1.997a2.003 2.003 0 00-1.997-1.996zm3.033-.625a.487.487 0 100-.974.487.487 0 000 .974z" fill="#FE9563"/></g><defs><linearGradient id="paint0_linear_2_6241" x1="-637" y1="-19" x2="794.5" y2="55.5" gradientUnits="userSpaceOnUse"><stop stop-color="#F7E6CB"/><stop offset="1" stop-color="#F5F2EA"/></linearGradient><clipPath id="clip0_2_6241"><path fill="#fff" transform="translate(-637 -11559)" d="M0 0h1440v11606H0z"/></clipPath></defs></svg>