<svg width="21" height="26" fill="none" xmlns="http://www.w3.org/2000/svg"><path d="M12.6 4.2c4.63 0 8.4 3.768 8.4 8.404C21 17.231 17.23 21 12.6 21c-4.63 0-8.4-3.768-8.4-8.395C4.2 7.968 7.97 4.2 12.6 4.2zm-.957 5.065c-.178 0-.348.04-.51.121a1.051 1.051 0 00-.455.503 5.432 5.432 0 00-.146.591c-.089.478-.137 1.256-.137 2.115 0 .82.048 1.564.121 2.05.008.009.098.552.195.738.178.34.527.551.9.551h.032c.243-.008.754-.219.754-.227.86-.356 2.554-1.467 3.235-2.204l.049-.049c.09-.089.203-.227.227-.259.13-.17.194-.38.194-.59a1.03 1.03 0 00-.21-.634c-.033-.032-.154-.17-.268-.283-.665-.713-2.4-1.88-3.308-2.237-.138-.056-.486-.178-.673-.186z" fill="#FE9C69"/><path fill-rule="evenodd" clip-rule="evenodd" d="M12.6 0C5.64 0 0 5.641 0 12.6c0 6.958 5.641 12.599 12.6 12.599v-1.68c-6.031 0-10.92-4.889-10.92-10.92 0-6.03 4.889-10.92 10.92-10.92V0z" fill="#FE9C69"/></svg>