<svg width="28" height="28" fill="none" xmlns="http://www.w3.org/2000/svg"><circle cx="14" cy="14" r="14" fill="#FE9563"/><path d="M10.839 12.191h-2.41v7.683h2.41v-7.683zm6.513-.167a4.288 4.288 0 00-.278-.022 2.811 2.811 0 00-2.376 1.088c-.072.094-.105.15-.105.15v-1.027h-2.304v7.682h2.409v-3.608c0-.522-.039-1.077.222-1.554.222-.4.622-.6 1.072-.6 1.332 0 1.36 1.205 1.36 1.316v4.48h2.409v-5.013c0-1.715-.872-2.726-2.41-2.892zm-7.719-.827a1.399 1.399 0 100-2.798 1.399 1.399 0 000 2.798z" fill="#fff"/></svg>