<svg width="18" height="18" fill="none" xmlns="http://www.w3.org/2000/svg"><g clip-path="url(#clip0_2_11194)"><path d="M15.75 12.315v2.652a.75.75 0 01-.697.748c-.328.023-.596.035-.803.035-6.628 0-12-5.372-12-12 0-.207.011-.475.034-.803a.75.75 0 01.749-.697h2.652a.375.375 0 01.374.337c.017.173.032.31.047.414.15 1.04.455 2.052.907 3.001.07.15.024.33-.11.426l-1.62 1.156a9.785 9.785 0 005.134 5.133l1.155-1.616a.347.347 0 01.43-.111 10.424 10.424 0 003.412.951.375.375 0 01.337.374h-.001z" fill="#FE9563"/></g><defs><clipPath id="clip0_2_11194"><path fill="#fff" d="M0 0h18v18H0z"/></clipPath></defs></svg>