<svg width="10" height="12" fill="none" xmlns="http://www.w3.org/2000/svg"><path fill-rule="evenodd" clip-rule="evenodd" d="M4.155 8.28c.365.012.695.494 1.66.494 1.813.012 3.061-1.377 3.45-3.202C10.619-.75 1.4-1.257.458 3.947.235 5.172.6 6.585 1.553 7.044c.73.353.777-.66.554-1.095-.99-1.931.2-3.674 1.754-4.168 1.46-.471 2.496-.082 3.285.73 1.012 1.048.553 3.897-.648 4.804-.424.317-1.2.388-1.601.011-.824-.765.447-2.39.259-3.579-.188-1.177-2.049-1-2.143.73-.047.883.212 1.142.012 2.025-.318 1.413-1.283 4.298-.6 5.428 1-.471 1.495-3.297 1.73-3.65z" fill="#fff"/></svg>