<svg width="28" height="28" fill="none" xmlns="http://www.w3.org/2000/svg"><circle cx="14" cy="14" r="14" fill="#FE9563"/><path d="M8.398 17.69c1.22.068 2.285-.217 3.325-.971-1.05-.18-1.778-.66-2.174-1.652.306-.042.575.037.892-.09-1.035-.454-1.705-1.134-1.731-2.311.327.026.575.243.965.211-.95-.929-1.24-1.942-.643-3.171.992 1.14 2.153 1.915 3.572 2.28.08.02.153.041.232.057.364.085.797.264 1.019.238.38-.048 0-.486.095-1.056.3-1.773 2.253-2.58 3.699-1.54.422.305.755.3 1.171.116.217-.095.438-.19.697-.301-.058.506-.449.786-.76 1.16.354.08.639-.02.966-.126-.111.364-.385.57-.633.77-.259.206-.36.423-.37.76-.158 5.114-5.968 9.066-9.942 5.921-.385-.306-.01 0-.38-.295z" fill="#fff"/></svg>